<svg width="36" height="36" viewBox="0 0 36 36" fill="none" xmlns="http://www.w3.org/2000/svg">
<path fill-rule="evenodd" clip-rule="evenodd" d="M15.3505 30.5261C15.3621 30.9081 15.2163 31.2784 14.948 31.5497C14.6797 31.8223 14.3108 31.9725 13.9288 31.9667H5.19739C4.58499 31.9667 4.00319 31.3514 4.00319 30.5261V21.8137C3.95653 21.0963 4.48293 20.4693 5.19739 20.3906H13.9288C14.3079 20.3833 14.6739 20.5306 14.9422 20.7989C15.2104 21.0672 15.3577 21.4331 15.3505 21.8137V30.5261ZM30.5777 20.3908H21.8493C21.0852 20.4418 20.4757 21.0498 20.4232 21.8139V30.5263C20.4684 31.2961 21.0794 31.9129 21.8493 31.9669H30.5777C30.9597 31.9727 31.3271 31.8225 31.5969 31.5499C31.8652 31.2787 32.011 30.9083 31.9993 30.5263V21.8139C32.0066 21.4333 31.8594 21.0673 31.5911 20.799C31.3227 20.5307 30.9568 20.3835 30.5777 20.3908ZM13.9286 4.00004H5.19724C4.58484 4.00004 4.00304 4.81076 4.00304 5.40712V14.1195C3.95492 14.8383 4.48278 15.4653 5.19724 15.5426H13.9286C14.3077 15.5499 14.6752 15.4026 14.9435 15.1343C15.2118 14.866 15.3591 14.5 15.3503 14.1194V5.40708C15.2934 4.65033 14.6869 4.04961 13.9286 4.00004ZM30.5777 4.00004H21.8493C21.2339 4.00004 20.4232 4.81076 20.4232 5.40712V14.1195C20.4743 14.885 21.0852 15.493 21.8493 15.5426H30.5777C30.9568 15.5499 31.3228 15.4026 31.5925 15.1343C31.8608 14.866 32.0081 14.5 31.9993 14.1194V5.40708C31.941 4.65033 31.3359 4.04961 30.5777 4.00004Z" fill="#FFC53D"/>
</svg>
