<svg width="36" height="36" viewBox="0 0 36 36" fill="none" xmlns="http://www.w3.org/2000/svg">
<path fill-rule="evenodd" clip-rule="evenodd" d="M27.8884 10.6709C29.0158 10.6709 30.0329 11.3499 30.4635 12.3918C30.8954 13.4337 30.6567 14.6329 29.8604 15.4292C29.0628 16.2268 27.8636 16.4656 26.8216 16.0336C25.7811 15.6017 25.1021 14.586 25.1021 13.4585C25.1021 11.9184 26.3496 10.6709 27.8884 10.6709ZM24.6136 23.6194V24.7635C24.6122 25.4825 24.0285 26.0634 23.3109 26.0634H12.1107C11.3931 26.0634 10.8094 25.4825 10.808 24.7635V23.6194C10.808 21.152 12.1232 18.8734 14.2594 17.6397C16.3957 16.4074 19.0259 16.4074 21.1622 17.6397C23.2985 18.8735 24.6136 21.1519 24.6136 23.6194ZM17.7108 9.339C19.0466 9.339 20.2514 10.1435 20.762 11.3787C21.274 12.6124 20.9911 14.0338 20.0472 14.9779C19.1019 15.9232 17.6805 16.2061 16.4469 15.6941C15.2131 15.1835 14.4072 13.9787 14.4072 12.6429C14.4072 10.8185 15.8864 9.339 17.7108 9.339ZM7.53307 10.6707C8.66054 10.6707 9.67623 11.3497 10.1082 12.3916C10.5388 13.4335 10.3014 14.6327 9.50375 15.429C8.70611 16.2267 7.50689 16.4654 6.46633 16.0334C5.42443 15.6015 4.74545 14.5858 4.74545 13.4583C4.74545 11.9182 5.99297 10.6707 7.53307 10.6707ZM33.7107 22.6438C33.7162 21.0554 33.0717 19.5347 31.9277 18.4348C30.7836 17.3349 29.238 16.7498 27.6522 16.8174C26.0652 16.8851 24.5762 17.5985 23.5287 18.7936C24.6659 20.1447 25.291 21.8531 25.2951 23.6195V24.6793H32.612C33.2178 24.6793 33.7091 24.1894 33.7105 23.5836L33.7107 22.6438ZM10.1428 24.6932V23.6333C10.1469 21.8669 10.772 20.1584 11.9092 18.8075C10.8659 17.6055 9.37548 16.8851 7.78567 16.812C6.19589 16.7402 4.64614 17.3226 3.49787 18.4252C2.34959 19.5278 1.70386 21.0527 1.71075 22.6438V23.5973C1.71213 24.2032 2.2034 24.6931 2.80925 24.6931L10.1428 24.6932Z" fill="#FFC53D"/>
</svg>
