<svg width="36" height="36" viewBox="0 0 36 36" fill="none" xmlns="http://www.w3.org/2000/svg">
<path d="M17.8958 31.9491C25.6231 31.9491 31.9 25.6807 31.9 17.9703C31.9 10.2684 25.6231 4 17.8958 4C10.1769 4 3.90002 10.2684 3.90002 17.9703C3.90002 25.6807 10.1769 31.9491 17.8958 31.9491ZM17.8958 8.68222C19.1936 8.68222 20.2369 9.73402 20.2369 11.0148C20.2369 11.0573 20.2284 11.0997 20.2284 11.1506L19.7788 18.9203C19.7195 19.9128 18.8967 20.6846 17.8958 20.6846C16.8949 20.6846 16.0721 19.9128 16.0127 18.9203L15.5632 11.1506C15.4868 9.81036 16.5471 8.68222 17.8958 8.68222ZM17.8958 27.2584C16.8779 27.2584 16.0466 26.4356 16.0466 25.4178C16.0466 24.3999 16.8779 23.5771 17.8958 23.5771C18.9137 23.5771 19.7449 24.3999 19.7449 25.4178C19.7449 26.4356 18.9137 27.2584 17.8958 27.2584Z" fill="#FFC53D"/>
</svg>
