<svg width="273" height="26" viewBox="0 0 273 26" fill="none" xmlns="http://www.w3.org/2000/svg">
<g clip-path="url(#clip0_274_847)">
<path opacity="0.8" d="M8.666 17H4.718C2.03933 17 0.7 15.3667 0.7 12.1C0.7 11.3813 0.760667 10.7467 0.882 10.196C1.00333 9.64533 1.21333 9.13667 1.512 8.67C1.81067 8.194 2.24 7.83 2.8 7.578C3.36 7.326 4.046 7.2 4.858 7.2H8.512V7.872H4.858C3.64467 7.872 2.78133 8.22667 2.268 8.936C1.764 9.64533 1.512 10.7 1.512 12.1C1.512 13.5093 1.75467 14.5687 2.24 15.278C2.72533 15.978 3.556 16.328 4.732 16.328H8.666V17ZM10.012 10.378C10.5813 9.79 11.524 9.496 12.84 9.496C14.156 9.496 15.094 9.79 15.654 10.378C16.2233 10.966 16.508 11.932 16.508 13.276C16.508 14.62 16.2233 15.5907 15.654 16.188C15.094 16.7853 14.156 17.084 12.84 17.084C11.524 17.084 10.5813 16.7853 10.012 16.188C9.45197 15.5907 9.17197 14.62 9.17197 13.276C9.17197 11.932 9.45197 10.966 10.012 10.378ZM10.586 10.84C10.1473 11.288 9.92797 12.1 9.92797 13.276C9.92797 14.452 10.1473 15.2733 10.586 15.74C11.0246 16.1973 11.776 16.426 12.84 16.426C13.904 16.426 14.6553 16.1973 15.094 15.74C15.5326 15.2733 15.752 14.452 15.752 13.276C15.752 12.1 15.5326 11.288 15.094 10.84C14.6553 10.3827 13.904 10.154 12.84 10.154C11.776 10.154 11.0246 10.3827 10.586 10.84ZM22.1738 13.108V13.164C22.5285 13.2387 22.7851 13.402 22.9438 13.654C23.1118 13.906 23.1958 14.312 23.1958 14.872C23.1958 16.2907 22.6685 17 21.6138 17H17.5678V16.342H21.1938C21.6605 16.342 21.9825 16.244 22.1598 16.048C22.3465 15.852 22.4398 15.46 22.4398 14.872C22.4398 13.9293 22.0665 13.458 21.3198 13.458H17.7778V12.8H21.3058C21.6791 12.8 21.9498 12.6973 22.1178 12.492C22.2858 12.2867 22.3698 11.9507 22.3698 11.484C22.3698 11.0547 22.2905 10.742 22.1318 10.546C21.9731 10.3407 21.6931 10.238 21.2918 10.238H17.7078V9.58H21.4178C22.0245 9.58 22.4585 9.73867 22.7198 10.056C22.9905 10.3733 23.1258 10.8493 23.1258 11.484C23.1258 12.016 23.0605 12.4033 22.9298 12.646C22.8085 12.8793 22.5565 13.0333 22.1738 13.108ZM24.4897 16.342H24.7417L27.2757 10.14C27.4437 9.71067 27.7097 9.496 28.0737 9.496C28.4377 9.496 28.7037 9.71067 28.8717 10.14L31.4057 16.342H31.6577C32.0217 16.342 32.2551 16.4353 32.3577 16.622C32.4697 16.8087 32.5257 17.1073 32.5257 17.518V18.75H31.7977V17.532C31.7977 17.3173 31.7651 17.1727 31.6997 17.098C31.6344 17.0327 31.5271 17 31.3777 17H24.6577C24.4524 17 24.3497 17.1773 24.3497 17.532V18.75H23.6217V17.518C23.6217 17.1073 23.6731 16.8087 23.7757 16.622C23.8877 16.4353 24.1257 16.342 24.4897 16.342ZM27.9057 10.448L25.5117 16.342H30.6357L28.2417 10.448C28.1857 10.308 28.1297 10.238 28.0737 10.238C28.0177 10.238 27.9617 10.308 27.9057 10.448ZM33.4527 9.58H37.0507C38.236 9.58 38.8287 10.2007 38.8287 11.442V16.02C38.8287 16.3747 38.754 16.6267 38.6047 16.776C38.4647 16.9253 38.18 17 37.7507 17H34.8947C34.176 17 33.6627 16.8227 33.3547 16.468C33.0467 16.1133 32.8927 15.544 32.8927 14.76C32.8927 13.9853 33.0467 13.4253 33.3547 13.08C33.6627 12.7347 34.176 12.562 34.8947 12.562H38.1007V11.316C38.1007 11.008 38.0167 10.7513 37.8487 10.546C37.6807 10.3407 37.4147 10.238 37.0507 10.238H33.4527V9.58ZM38.1007 13.22H34.6987C34.288 13.22 34.008 13.3507 33.8587 13.612C33.7187 13.864 33.6487 14.2467 33.6487 14.76C33.6487 15.2733 33.7187 15.6653 33.8587 15.936C34.008 16.2067 34.288 16.342 34.6987 16.342H37.7507C37.984 16.342 38.1007 16.23 38.1007 16.006V13.22ZM46.2441 17H45.5161V13.5H41.0641V17H40.3361V9.58H41.0641V12.842H45.5161V9.58H46.2441V17ZM53.9619 17H53.2339V10.546C53.2339 10.434 53.2106 10.378 53.1639 10.378C53.1359 10.378 53.0846 10.434 53.0099 10.546L49.2299 16.552C49.1086 16.748 48.9919 16.888 48.8799 16.972C48.7679 17.0467 48.6186 17.084 48.4319 17.084C47.9839 17.084 47.7599 16.8273 47.7599 16.314V9.58H48.4879V16.034C48.4879 16.1553 48.5159 16.216 48.5719 16.216C48.6092 16.216 48.6606 16.1553 48.7259 16.034L52.5479 9.944C52.7346 9.64533 52.9912 9.496 53.3179 9.496C53.7472 9.496 53.9619 9.78067 53.9619 10.35V17ZM61.4208 17H57.7808C56.8288 17 56.1615 16.6827 55.7788 16.048C55.4055 15.4133 55.2188 14.5127 55.2188 13.346C55.2188 12.0207 55.4475 11.05 55.9048 10.434C56.3715 9.80867 57.2022 9.496 58.3968 9.496C60.5248 9.496 61.5888 10.4387 61.5888 12.324C61.5888 12.7627 61.5142 13.0753 61.3648 13.262C61.2155 13.4487 60.9355 13.542 60.5248 13.542H55.9748C55.9748 13.9153 55.9935 14.2467 56.0308 14.536C56.0775 14.8253 56.1568 15.1193 56.2688 15.418C56.3902 15.7073 56.5768 15.936 56.8288 16.104C57.0902 16.2627 57.4075 16.342 57.7808 16.342H61.4208V17ZM55.9748 12.884H60.5248C60.7302 12.884 60.8328 12.772 60.8328 12.548V12.45C60.8328 11.582 60.6322 10.9847 60.2308 10.658C59.8388 10.322 59.2322 10.154 58.4108 10.154C57.5522 10.154 56.9315 10.3547 56.5488 10.756C56.1662 11.148 55.9748 11.8573 55.9748 12.884ZM72.3232 17H71.5952V10.546C71.5952 10.434 71.5719 10.378 71.5252 10.378C71.4972 10.378 71.4459 10.434 71.3712 10.546L67.5912 16.552C67.4699 16.748 67.3532 16.888 67.2412 16.972C67.1292 17.0467 66.9799 17.084 66.7932 17.084C66.3452 17.084 66.1212 16.8273 66.1212 16.314V9.58H66.8492V16.034C66.8492 16.1553 66.8772 16.216 66.9332 16.216C66.9706 16.216 67.0219 16.1553 67.0872 16.034L70.9092 9.944C71.0959 9.64533 71.3526 9.496 71.6792 9.496C72.1086 9.496 72.3232 9.78067 72.3232 10.35V17ZM77.0998 17V10.756C77.0998 10.3733 77.1744 10.084 77.3238 9.888C77.4731 9.68267 77.7344 9.58 78.1078 9.58H81.9718C82.3451 9.58 82.6064 9.68267 82.7558 9.888C82.9051 10.084 82.9798 10.3733 82.9798 10.756V17H82.2518V10.77C82.2518 10.546 82.2144 10.4013 82.1398 10.336C82.0744 10.2707 81.9624 10.238 81.8038 10.238H78.2758C78.1171 10.238 78.0004 10.2707 77.9258 10.336C77.8604 10.4013 77.8278 10.546 77.8278 10.77V17H77.0998ZM85.2242 17V19.38H84.4962V10.644C84.4962 9.93467 84.8882 9.58 85.6722 9.58H87.5622C88.7009 9.58 89.4896 9.88333 89.9282 10.49C90.3762 11.0873 90.6002 12.016 90.6002 13.276C90.6002 14.536 90.3762 15.474 89.9282 16.09C89.4896 16.6967 88.7009 17 87.5622 17H85.2242ZM85.2242 10.742V16.342H87.5622C88.4676 16.342 89.0742 16.09 89.3822 15.586C89.6902 15.0727 89.8442 14.3027 89.8442 13.276C89.8442 12.2493 89.6902 11.4887 89.3822 10.994C89.0742 10.49 88.4676 10.238 87.5622 10.238H85.6722C85.5136 10.238 85.3969 10.2753 85.3222 10.35C85.2569 10.4153 85.2242 10.546 85.2242 10.742ZM92.4534 10.378C93.0227 9.79 93.9654 9.496 95.2814 9.496C96.5974 9.496 97.5354 9.79 98.0954 10.378C98.6647 10.966 98.9494 11.932 98.9494 13.276C98.9494 14.62 98.6647 15.5907 98.0954 16.188C97.5354 16.7853 96.5974 17.084 95.2814 17.084C93.9654 17.084 93.0227 16.7853 92.4534 16.188C91.8934 15.5907 91.6134 14.62 91.6134 13.276C91.6134 11.932 91.8934 10.966 92.4534 10.378ZM93.0274 10.84C92.5887 11.288 92.3694 12.1 92.3694 13.276C92.3694 14.452 92.5887 15.2733 93.0274 15.74C93.466 16.1973 94.2174 16.426 95.2814 16.426C96.3454 16.426 97.0967 16.1973 97.5354 15.74C97.974 15.2733 98.1934 14.452 98.1934 13.276C98.1934 12.1 97.974 11.288 97.5354 10.84C97.0967 10.3827 96.3454 10.154 95.2814 10.154C94.2174 10.154 93.466 10.3827 93.0274 10.84ZM99.7534 16.342H100.005L102.539 10.14C102.707 9.71067 102.973 9.496 103.337 9.496C103.701 9.496 103.967 9.71067 104.135 10.14L106.669 16.342H106.921C107.285 16.342 107.519 16.4353 107.621 16.622C107.733 16.8087 107.789 17.1073 107.789 17.518V18.75H107.061V17.532C107.061 17.3173 107.029 17.1727 106.963 17.098C106.898 17.0327 106.791 17 106.641 17H99.9214C99.7161 17 99.6134 17.1773 99.6134 17.532V18.75H98.8854V17.518C98.8854 17.1073 98.9367 16.8087 99.0394 16.622C99.1514 16.4353 99.3894 16.342 99.7534 16.342ZM103.169 10.448L100.775 16.342H105.899L103.505 10.448C103.449 10.308 103.393 10.238 103.337 10.238C103.281 10.238 103.225 10.308 103.169 10.448ZM113.322 13.108V13.164C113.677 13.2387 113.934 13.402 114.092 13.654C114.26 13.906 114.344 14.312 114.344 14.872C114.344 16.2907 113.817 17 112.762 17H109.206C108.674 17 108.408 16.706 108.408 16.118V10.462C108.408 10.21 108.488 10 108.646 9.832C108.814 9.664 109.024 9.58 109.276 9.58H112.594C113.201 9.58 113.635 9.73867 113.896 10.056C114.167 10.3733 114.302 10.8493 114.302 11.484C114.302 12.0067 114.232 12.3893 114.092 12.632C113.962 12.8747 113.705 13.0333 113.322 13.108ZM109.136 12.8H112.482C112.856 12.8 113.126 12.6973 113.294 12.492C113.462 12.2867 113.546 11.9507 113.546 11.484C113.546 11.0547 113.467 10.742 113.308 10.546C113.15 10.3407 112.87 10.238 112.468 10.238H109.43C109.234 10.238 109.136 10.3267 109.136 10.504V12.8ZM109.136 13.458V15.88C109.136 15.992 109.141 16.076 109.15 16.132C109.16 16.1787 109.197 16.2253 109.262 16.272C109.337 16.3187 109.444 16.342 109.584 16.342H112.342C112.809 16.342 113.131 16.244 113.308 16.048C113.495 15.852 113.588 15.46 113.588 14.872C113.588 13.9293 113.215 13.458 112.468 13.458H109.136ZM121.925 17H121.197V10.546C121.197 10.434 121.173 10.378 121.127 10.378C121.099 10.378 121.047 10.434 120.973 10.546L117.193 16.552C117.071 16.748 116.955 16.888 116.843 16.972C116.731 17.0467 116.581 17.084 116.395 17.084C115.947 17.084 115.723 16.8273 115.723 16.314V9.58H116.451V16.034C116.451 16.1553 116.479 16.216 116.535 16.216C116.572 16.216 116.623 16.1553 116.689 16.034L120.511 9.944C120.697 9.64533 120.954 9.496 121.281 9.496C121.71 9.496 121.925 9.78067 121.925 10.35V17ZM123.574 17H122.538L125.87 13.654C126.075 13.4487 126.178 13.29 126.178 13.178C126.178 13.0847 126.075 12.926 125.87 12.702L122.762 9.58H123.742L126.388 12.212C126.77 12.5667 126.962 12.8887 126.962 13.178C126.962 13.4673 126.803 13.7707 126.486 14.088L123.574 17ZM128.04 17H127.312V9.58H128.04V17ZM132.814 17H131.778L128.866 14.088C128.548 13.7707 128.39 13.4673 128.39 13.178C128.39 12.8887 128.581 12.5667 128.964 12.212L131.61 9.58H132.59L129.482 12.702C129.276 12.926 129.174 13.0847 129.174 13.178C129.174 13.29 129.276 13.4487 129.482 13.654L132.814 17ZM139.241 17H135.601C134.649 17 133.982 16.6827 133.599 16.048C133.226 15.4133 133.039 14.5127 133.039 13.346C133.039 12.0207 133.268 11.05 133.725 10.434C134.192 9.80867 135.022 9.496 136.217 9.496C138.345 9.496 139.409 10.4387 139.409 12.324C139.409 12.7627 139.334 13.0753 139.185 13.262C139.036 13.4487 138.756 13.542 138.345 13.542H133.795C133.795 13.9153 133.814 14.2467 133.851 14.536C133.898 14.8253 133.977 15.1193 134.089 15.418C134.21 15.7073 134.397 15.936 134.649 16.104C134.91 16.2627 135.228 16.342 135.601 16.342H139.241V17ZM133.795 12.884H138.345C138.55 12.884 138.653 12.772 138.653 12.548V12.45C138.653 11.582 138.452 10.9847 138.051 10.658C137.659 10.322 137.052 10.154 136.231 10.154C135.372 10.154 134.752 10.3547 134.369 10.756C133.986 11.148 133.795 11.8573 133.795 12.884ZM146.582 17H145.854V13.5H141.402V17H140.674V9.58H141.402V12.842H145.854V9.58H146.582V17ZM154.3 17H153.572V10.546C153.572 10.434 153.548 10.378 153.502 10.378C153.474 10.378 153.422 10.434 153.348 10.546L149.568 16.552C149.446 16.748 149.33 16.888 149.218 16.972C149.106 17.0467 148.956 17.084 148.77 17.084C148.322 17.084 148.098 16.8273 148.098 16.314V9.58H148.826V16.034C148.826 16.1553 148.854 16.216 148.91 16.216C148.947 16.216 148.998 16.1553 149.064 16.034L152.886 9.944C153.072 9.64533 153.329 9.496 153.656 9.496C154.085 9.496 154.3 9.78067 154.3 10.35V17ZM161.759 17H158.119C157.167 17 156.499 16.6827 156.117 16.048C155.743 15.4133 155.557 14.5127 155.557 13.346C155.557 12.0207 155.785 11.05 156.243 10.434C156.709 9.80867 157.54 9.496 158.735 9.496C160.863 9.496 161.927 10.4387 161.927 12.324C161.927 12.7627 161.852 13.0753 161.703 13.262C161.553 13.4487 161.273 13.542 160.863 13.542H156.313C156.313 13.9153 156.331 14.2467 156.369 14.536C156.415 14.8253 156.495 15.1193 156.607 15.418C156.728 15.7073 156.915 15.936 157.167 16.104C157.428 16.2627 157.745 16.342 158.119 16.342H161.759V17ZM156.313 12.884H160.863C161.068 12.884 161.171 12.772 161.171 12.548V12.45C161.171 11.582 160.97 10.9847 160.569 10.658C160.177 10.322 159.57 10.154 158.749 10.154C157.89 10.154 157.269 10.3547 156.887 10.756C156.504 11.148 156.313 11.8573 156.313 12.884Z" fill="white"/>
<path fill-rule="evenodd" clip-rule="evenodd" d="M265.369 0.60026L265.369 0.600714V0.600728V0.600743V0.600758V0.600773V0.600788V0.600803V0.600818V0.600833V0.600848V0.600863V0.600878C265.375 0.664534 265.382 0.72791 265.382 0.790456C265.383 2.38527 265.383 3.98009 265.383 5.5749C265.383 9.29506 265.383 13.0152 265.39 16.7354C265.39 16.9768 265.303 17.0956 265.099 17.1956C264.252 17.6124 263.354 17.7576 262.421 17.7369C261.602 17.7199 260.823 17.552 260.084 17.1937C259.877 17.0937 259.801 16.9674 259.801 16.7297C259.811 13.0688 259.811 9.40795 259.801 5.74707C259.801 5.52829 259.871 5.40946 260.06 5.3227C261.28 4.75877 262.536 4.57959 263.847 4.9568C263.865 4.96236 263.883 4.96382 263.906 4.96572C263.915 4.96639 263.924 4.96713 263.934 4.96812V0.5C264.409 0.503772 264.884 0.503772 265.359 0.503772C265.362 0.535958 265.365 0.568145 265.369 0.60026ZM263.934 11.2506C263.934 10.9045 263.933 10.5584 263.933 10.2123C263.932 9.0011 263.932 7.79054 263.939 6.57883C263.941 6.37325 263.871 6.28837 263.681 6.23934C262.941 6.04696 262.21 6.0413 261.472 6.25254C261.302 6.30158 261.244 6.37513 261.244 6.55997C261.252 9.69275 261.252 12.8255 261.244 15.9564C261.244 16.145 261.308 16.2129 261.478 16.2601C262.225 16.4638 262.964 16.4675 263.711 16.2582C263.884 16.2091 263.939 16.1318 263.937 15.9489C263.932 14.7746 263.932 13.5992 263.933 12.4244V12.4242V12.424C263.933 12.0328 263.934 11.6417 263.934 11.2506ZM226.865 2.40028C226.756 1.76822 226.647 1.13609 226.538 0.503728C225.976 0.503728 225.412 0.503728 224.85 0.501842C224.837 0.573014 224.824 0.644186 224.81 0.715358C224.77 0.928984 224.73 1.14261 224.694 1.35624C224.556 2.15971 224.418 2.96365 224.28 3.7676C224.141 4.57154 224.003 5.37547 223.866 6.17894L223.865 6.1849C223.595 7.74647 223.326 9.30805 223.058 10.8715L222.187 15.9809L222.098 16.5051L221.931 17.4916H223.504C223.549 17.1845 223.595 16.879 223.64 16.5745C223.745 15.8746 223.85 15.1799 223.943 14.4833C223.971 14.274 224.045 14.2268 224.239 14.2306C224.712 14.2375 225.187 14.2363 225.661 14.2352C225.838 14.2348 226.016 14.2344 226.193 14.2344H227.389C227.468 14.7669 227.547 15.2942 227.625 15.8185C227.709 16.3805 227.793 16.9392 227.875 17.4973H229.445C229.438 17.4554 229.432 17.4142 229.426 17.3736L229.426 17.3735C229.407 17.2424 229.389 17.1175 229.367 16.9937C229.259 16.3679 229.151 15.7424 229.043 15.1169C228.843 13.9628 228.643 12.8089 228.445 11.6542C228.282 10.6989 228.12 9.74364 227.958 8.78834C227.797 7.83304 227.635 6.87774 227.472 5.92243C227.271 4.74862 227.068 3.5756 226.866 2.40234L226.865 2.40028ZM225.545 3.6273C225.553 3.49928 225.561 3.36615 225.797 3.43281C225.939 5.37195 226.253 7.2837 226.568 9.19849L226.568 9.19878C226.769 10.422 226.97 11.6465 227.127 12.8802H224.232L224.336 12.2188L224.336 12.2158L224.339 12.1996L224.339 12.1941C224.466 11.3924 224.592 10.5921 224.716 9.79078C224.775 9.41218 224.836 9.03358 224.896 8.6549L224.896 8.65473L224.896 8.65455L224.896 8.65438L224.896 8.6542L224.896 8.65403L224.896 8.65385L224.896 8.65368L224.896 8.6535L224.896 8.65333L224.896 8.65315L224.896 8.65298L224.896 8.6528L224.896 8.65272L224.896 8.65264L224.896 8.65256L224.896 8.65248L224.896 8.6524L224.896 8.65232L224.896 8.65224L224.896 8.65216L224.896 8.65208L224.896 8.652L224.896 8.65192L224.896 8.65184C225.06 7.62048 225.223 6.58857 225.371 5.55465C225.43 5.13394 225.462 4.70895 225.493 4.28372L225.493 4.28347C225.509 4.07778 225.524 3.87203 225.542 3.66668C225.543 3.65387 225.544 3.64079 225.545 3.62764L225.545 3.6273ZM184.398 6.5297C184.09 4.37958 183.447 2.35015 182.278 0.503684H178V17.5105C178.33 17.5105 178.66 17.51 178.99 17.5095C179.98 17.5081 180.97 17.5067 181.957 17.518C182.206 17.5199 182.332 17.4312 182.451 17.2313C183.639 15.2434 184.252 13.0725 184.482 10.7904C184.626 9.37202 184.601 7.94804 184.398 6.5297ZM179.611 16.1827V1.83148C179.753 1.83148 179.894 1.83089 180.034 1.83029H180.034H180.034H180.034H180.034H180.034H180.034H180.034H180.034H180.034H180.034H180.034H180.034C180.451 1.82853 180.858 1.8268 181.265 1.84091C181.352 1.8428 181.47 1.95219 181.514 2.04084C182.015 3.05932 182.355 4.13627 182.593 5.2434C183.006 7.16531 183.096 9.1042 182.87 11.0582C182.676 12.75 182.263 14.3796 181.546 15.9299C181.455 16.1261 181.35 16.1959 181.135 16.1883C180.779 16.1762 180.422 16.1785 180.058 16.1808H180.057H180.057H180.057H180.056H180.056H180.056H180.056H180.055H180.055H180.055H180.054H180.054C179.908 16.1817 179.76 16.1827 179.611 16.1827ZM216.663 0.508924L216.663 0.503684H215.237C215.233 0.547064 215.229 0.592329 215.229 0.635709V17.2954C215.229 17.3382 215.235 17.3817 215.24 17.4245L215.24 17.4246C215.243 17.4479 215.246 17.4709 215.248 17.4935H216.67V17.1898V0.767735C216.67 0.680887 216.667 0.595849 216.663 0.509075L216.663 0.508924ZM211.548 9.96054V7.15971C211.548 7.10964 211.545 7.0592 211.543 7.00879V7.00875C211.538 6.89968 211.533 6.79079 211.551 6.68631C211.606 6.36945 211.448 6.26383 211.169 6.19781C210.546 6.0507 209.937 6.0639 209.326 6.25251C209.166 6.30155 209.109 6.3751 209.113 6.54674C209.121 6.92151 209.119 7.29629 209.118 7.67788C209.117 7.83207 209.117 7.98738 209.117 8.14425H207.693C207.691 8.12028 207.688 8.09612 207.686 8.07183C207.681 8.02154 207.676 7.97067 207.676 7.9198C207.675 7.674 207.675 7.4282 207.676 7.18246V7.18052V7.18044V7.18035V7.18027V7.18018V7.1801V7.18002V7.17993V7.17985V7.17976C207.677 6.68726 207.677 6.19504 207.67 5.70366C207.668 5.52825 207.726 5.43395 207.877 5.35285C208.637 4.94357 209.452 4.77194 210.307 4.76628C211.189 4.76062 212.029 4.93603 212.813 5.35851C212.96 5.43772 213.021 5.52825 213.021 5.70366C213.015 9.40792 213.015 13.1122 213.019 16.8146C213.019 16.9768 212.972 17.0692 212.826 17.1446C212.089 17.5294 211.304 17.7048 210.476 17.7368C209.537 17.7727 208.647 17.6105 207.804 17.1861C207.61 17.088 207.532 16.973 207.534 16.7448C207.545 14.7832 207.544 12.8217 207.534 10.8583C207.532 10.6395 207.608 10.5282 207.793 10.4321C208.734 9.94922 209.735 9.80022 210.78 9.87944C210.951 9.89118 211.12 9.91104 211.3 9.93216L211.3 9.93217L211.3 9.93219L211.301 9.93225C211.38 9.94163 211.462 9.95127 211.548 9.96054ZM209.003 13.7855C209.003 13.9846 209.004 14.1836 209.004 14.3827C209.005 14.9135 209.006 15.4444 209 15.9752C208.998 16.1356 209.049 16.2035 209.2 16.2525C209.928 16.4864 210.652 16.4637 211.372 16.2374C211.448 16.2129 211.542 16.0846 211.542 16.0054C211.548 15.0765 211.549 14.1475 211.549 13.2186C211.55 12.6877 211.55 12.1568 211.551 11.6259C211.551 11.4788 211.508 11.4034 211.363 11.3619C210.646 11.1507 209.931 11.1356 209.213 11.3525C209.047 11.4015 208.998 11.4807 209 11.6505C209.005 12.1837 209.005 12.7169 209.004 13.251C209.004 13.429 209.003 13.6072 209.003 13.7855ZM245.72 5.00559H244.279C244.279 5.12064 244.279 5.20929 244.277 5.29605C244.277 5.93292 244.277 6.5698 244.277 7.20667C244.277 10.3891 244.277 13.5715 244.271 16.754C244.269 16.986 244.352 17.101 244.548 17.1953C245.288 17.5537 246.067 17.7215 246.885 17.7404C247.83 17.763 248.736 17.6103 249.59 17.1915C249.79 17.0935 249.86 16.969 249.86 16.7427C249.853 13.5683 249.854 10.3953 249.854 7.22246V7.21412C249.854 6.57978 249.854 5.94546 249.854 5.31114V5.01313H248.405V16.1787C247.602 16.4767 246.802 16.4711 245.991 16.2787C245.773 16.2278 245.714 16.1203 245.714 15.8977C245.72 12.9651 245.72 10.0312 245.72 7.09818V7.09807V7.09797V7.09787V7.09777V7.09767C245.72 6.51092 245.72 5.9242 245.72 5.33754V5.00559ZM253.481 17.4992H252.042V17.2106C252.042 16.5738 252.042 15.937 252.042 15.3001V15.3C252.042 12.1171 252.042 8.9333 252.036 5.75083C252.036 5.53205 252.108 5.417 252.295 5.32458C253.113 4.91341 253.986 4.76064 254.894 4.7663C255.765 4.77196 256.6 4.93605 257.383 5.33589C257.549 5.42077 257.625 5.52262 257.625 5.72065C257.62 8.7886 257.62 11.8565 257.621 14.9235V14.9343V14.9345V14.9347V14.9348V14.935V14.9352V14.9354C257.621 15.7014 257.621 16.4674 257.621 17.2333V17.4898H256.17V17.1767C256.17 16.4726 256.17 15.7686 256.17 15.0645V15.0645V15.0644V15.0644V15.0643V15.0643V15.0643V15.0642C256.17 12.2471 256.169 9.43029 256.178 6.61466C256.178 6.36946 256.091 6.27327 255.876 6.22424C255.073 6.03563 254.281 6.03374 253.483 6.33552C253.481 10.0436 253.481 13.7442 253.481 17.4653V17.4992ZM201.153 6.33371H202.229C202.229 6.47517 202.229 6.58079 202.225 6.69018C202.225 7.25063 202.225 7.81108 202.225 8.37153V8.37522C202.225 11.1745 202.225 13.9738 202.219 16.7732C202.219 16.9806 202.287 17.0919 202.468 17.1787C203.143 17.4993 203.858 17.6672 204.597 17.7181C205.026 17.7483 205.459 17.7351 205.888 17.7143C206.001 17.7087 206.201 17.6087 206.206 17.537C206.23 17.2678 206.227 16.9966 206.224 16.7149C206.222 16.6156 206.221 16.5151 206.221 16.4129C206.14 16.4129 206.061 16.4144 205.985 16.4159C205.819 16.4191 205.663 16.422 205.508 16.4091C205.201 16.3847 204.894 16.3538 204.586 16.3229C204.371 16.3012 204.156 16.2796 203.941 16.2601C203.72 16.2413 203.666 16.1357 203.666 15.9169C203.672 13.3344 203.672 10.7532 203.671 8.17223V8.1722V8.17218V8.17215C203.671 7.65615 203.671 7.14016 203.671 6.62417V6.3224H206.087V4.98894H203.662V2.83881H202.217V5.0078H201.153V6.33371ZM235.293 4.88514V6.08469C235.003 6.09986 234.711 6.09916 234.419 6.09845C233.694 6.09669 232.967 6.09493 232.253 6.33554V17.4936H230.81V17.2163C230.81 16.5797 230.81 15.9429 230.81 15.3062V15.3061V15.306V15.3059V15.3058V15.3057C230.811 12.1228 230.811 8.93898 230.804 5.75651C230.804 5.52453 230.886 5.41136 231.084 5.32083C231.821 4.98322 232.604 4.83045 233.404 4.79273C233.806 4.77374 234.21 4.79473 234.614 4.81574C234.772 4.82395 234.93 4.83216 235.088 4.83799C235.134 4.83927 235.179 4.85256 235.225 4.86629C235.247 4.87291 235.27 4.87963 235.293 4.88514ZM188.083 17.4896V5.01701H186.668V17.4896H188.083ZM199.643 17.5011H198.241V5.01333H199.643V17.5011ZM188.075 0.880899H186.67V2.66702H188.075V0.880899ZM198.238 0.880899H199.643V2.6689H198.238V0.880899ZM242.502 12.4794C242.502 12.0724 242.502 11.6653 242.502 11.2581C242.502 10.8515 242.502 10.4448 242.502 10.038C242.501 8.61457 242.5 7.19022 242.508 5.76588C242.509 5.53955 242.436 5.41318 242.238 5.31699C241.459 4.93412 240.633 4.76815 239.769 4.76437C238.864 4.7606 237.99 4.91526 237.172 5.32642C236.979 5.42261 236.921 5.54521 236.921 5.75645C236.929 9.41733 236.929 13.0801 236.921 16.741C236.919 16.9673 236.987 17.0937 237.187 17.1899C237.936 17.5501 238.722 17.7217 239.55 17.7387C240.495 17.7576 241.4 17.6067 242.253 17.1804C242.443 17.0861 242.509 16.9654 242.508 16.7504C242.5 15.3262 242.501 13.9031 242.502 12.4794ZM238.368 6.68629V6.3317C239.216 6.0205 240.059 6.01673 240.906 6.27889C240.974 6.30153 241.046 6.44487 241.048 6.53163C241.055 7.13452 241.054 7.73627 241.054 8.33866C241.054 8.5108 241.053 8.68299 241.053 8.85528V15.8507V16.1808C240.207 16.4845 239.363 16.4882 238.519 16.228C238.451 16.2072 238.387 16.0846 238.375 16.0016C238.359 15.879 238.362 15.7525 238.365 15.6263C238.366 15.5759 238.368 15.5255 238.368 15.4754V6.68629Z" fill="white"/>
<path fill-rule="evenodd" clip-rule="evenodd" d="M195.719 5.17456L195.719 5.17454L195.719 5.17452C195.891 5.03218 196.064 4.88936 196.216 4.72677C196.427 4.50232 196.665 4.49855 196.944 4.53061V6.3205H195.855V6.65057C195.855 7.19293 195.855 7.73519 195.855 8.2774V8.27756V8.27773V8.27789V8.27805V8.27821C195.854 10.0851 195.853 11.8914 195.863 13.6988C195.865 13.9421 195.786 14.0779 195.58 14.159C195.461 14.206 195.341 14.2528 195.221 14.2996C195.192 14.3119 195.16 14.3248 195.127 14.3382C195.042 14.3732 194.955 14.4061 194.867 14.4375C194.667 14.5155 194.464 14.5939 194.258 14.6735L194.258 14.6737C194.148 14.7162 194.038 14.759 193.926 14.8022V16.4657C194.137 16.5219 194.347 16.5742 194.555 16.6261L194.555 16.6261L194.555 16.6261C194.63 16.6448 194.704 16.6635 194.778 16.6822C194.985 16.7265 195.189 16.7799 195.389 16.8429C195.551 16.8882 195.711 16.9361 195.871 16.9882C196.704 17.2592 196.704 17.2839 196.704 18.1345V18.1575C196.704 18.3976 196.704 18.6375 196.703 18.8774V18.8776V18.8778V18.878V18.8781V18.8783C196.702 19.5974 196.701 20.316 196.71 21.0357C196.712 21.2318 196.646 21.3337 196.476 21.4204C195.542 21.8939 194.55 22.0957 193.507 22.1202C193.387 22.123 193.267 22.1242 193.147 22.1235C193.027 22.1242 192.907 22.123 192.787 22.1202C191.744 22.0957 190.752 21.8939 189.818 21.4204C189.648 21.3337 189.582 21.2318 189.584 21.0357C189.593 20.3158 189.592 19.597 189.591 18.8776V18.8776V18.8776V18.8774L189.591 18.8761C189.59 18.6367 189.59 18.3972 189.59 18.1575V18.1401C189.59 17.284 189.59 17.2598 190.424 16.9882C190.583 16.9361 190.743 16.8882 190.905 16.8429C191.105 16.7799 191.309 16.7265 191.516 16.6822C191.59 16.6635 191.664 16.6448 191.739 16.6261L191.739 16.6261C191.947 16.5743 192.157 16.5219 192.368 16.4657V14.8022C192.257 14.759 192.146 14.7162 192.036 14.6737L192.035 14.6734L192.032 14.6721C191.828 14.5931 191.626 14.5151 191.427 14.4375C191.339 14.4061 191.253 14.3732 191.167 14.3382L191.122 14.3201C191.114 14.3166 191.105 14.3132 191.097 14.3097C191.089 14.3063 191.081 14.3029 191.073 14.2996C190.953 14.2528 190.833 14.206 190.714 14.159C190.508 14.0779 190.429 13.9421 190.431 13.6988C190.441 11.8914 190.44 10.085 190.439 8.27811V8.27795V8.27779V8.27763L190.439 8.27008C190.439 7.73031 190.439 7.19049 190.439 6.65057V6.3205H189.35V4.53061C189.629 4.49855 189.867 4.50232 190.078 4.72677C190.23 4.88936 190.403 5.03218 190.575 5.17452L190.575 5.17454L190.575 5.17461L190.575 5.17465L190.575 5.17469C190.638 5.22693 190.701 5.2791 190.763 5.33216C191.052 5.17518 191.383 5.04593 191.739 4.95064C192.195 4.82113 192.674 4.76276 193.147 4.7647C193.62 4.76276 194.099 4.82113 194.555 4.95065C194.911 5.04594 195.242 5.17519 195.531 5.33216C195.593 5.27906 195.656 5.22685 195.719 5.17457L195.719 5.17456ZM191.978 9.71922C191.978 10.0093 191.978 10.2994 191.978 10.5895C191.98 11.3632 191.981 12.1368 191.974 12.9105C191.972 13.0915 192.027 13.1783 192.196 13.2292C192.514 13.3245 192.83 13.3743 193.147 13.3784C193.464 13.3743 193.78 13.3245 194.098 13.2292C194.267 13.1783 194.322 13.0915 194.32 12.9105C194.313 12.1368 194.314 11.3632 194.316 10.5896L194.316 10.5867C194.316 10.2975 194.316 10.0084 194.316 9.71922C194.316 9.45752 194.316 9.19583 194.316 8.93414C194.315 8.14906 194.314 7.36398 194.322 6.5789C194.324 6.37143 194.25 6.29033 194.064 6.23563C193.757 6.14572 193.451 6.09861 193.147 6.09447C192.843 6.09861 192.537 6.14572 192.23 6.23563C192.044 6.29033 191.97 6.37143 191.972 6.5789C191.982 7.34653 191.98 8.11416 191.979 8.88179C191.978 9.16093 191.978 9.44007 191.978 9.71922ZM191.333 18.1519C191.938 17.9697 192.542 17.8764 193.147 17.8719C193.752 17.8764 194.356 17.9697 194.961 18.1519C195.118 18.199 195.182 18.2782 195.178 18.4518C195.167 19.0421 195.167 19.6306 195.178 20.2209C195.182 20.3982 195.11 20.4812 194.956 20.5132C194.837 20.5377 194.719 20.5642 194.601 20.5907L194.601 20.5907L194.601 20.5907L194.601 20.5907C194.3 20.6583 193.999 20.7259 193.694 20.7584C193.511 20.7782 193.329 20.7899 193.147 20.7933C192.965 20.7899 192.783 20.7782 192.6 20.7584C192.295 20.7259 191.994 20.6583 191.693 20.5907L191.693 20.5907L191.693 20.5907L191.693 20.5907L191.693 20.5907L191.693 20.5907C191.575 20.5642 191.457 20.5377 191.338 20.5132C191.184 20.4812 191.112 20.3982 191.116 20.2209C191.127 19.6306 191.127 19.0421 191.116 18.4518C191.112 18.2782 191.176 18.199 191.333 18.1519ZM178.023 19.2382H188.23V20.2454H178.023V19.2382ZM265.608 19.2382H198.279V20.2454H265.608V19.2382ZM191.925 23.5459C191.665 23.3988 191.416 23.2574 191.155 23.1084C190.831 23.6742 190.522 24.2174 190.209 24.77C190.362 24.8562 190.512 24.9418 190.661 25.0271C190.767 25.0874 190.872 25.1475 190.978 25.2076C191.172 24.8683 191.362 24.5346 191.551 24.2018C191.676 23.9832 191.8 23.765 191.925 23.5459ZM195.29 23.1084C195.029 23.2574 194.78 23.3988 194.52 23.5459C194.589 23.6666 194.658 23.787 194.726 23.9074C194.782 24.0055 194.838 24.1036 194.894 24.2018C195.083 24.5346 195.273 24.8683 195.467 25.2076C195.573 25.1475 195.678 25.0874 195.784 25.0271C195.933 24.9418 196.083 24.8562 196.236 24.77C195.923 24.2174 195.614 23.6742 195.29 23.1084ZM193.651 25.5001H192.766V23.5876H193.651V25.5001Z" fill="#FFC53D"/>
</g>
<defs>
<clipPath id="clip0_274_847">
<rect width="273" height="25" fill="white" transform="translate(0 0.5)"/>
</clipPath>
</defs>
</svg>
